<?xml version="1.0" encoding="us-ascii" standalone="no"?><svg xmlns="http://www.w3.org/2000/svg" xmlns:xlink="http://www.w3.org/1999/xlink" contentStyleType="text/css" height="1389px" preserveAspectRatio="none" style="width:1545px;height:1389px;background:#FFFFFF;" version="1.1" viewBox="0 0 1545 1389" width="1545px" zoomAndPan="magnify"><defs/><g><text fill="#000000" font-family="sans-serif" font-size="14" font-weight="bold" lengthAdjust="spacing" textLength="266" x="632.75" y="24.9951">Google Chat MCP - Tool Structure</text><!--cluster server--><g id="cluster_server"><path d="M479.5,47.2969 L561.5,47.2969 A7.5,7.5 0 0 1 566.5,52.2969 L573.5,67.7734 L664.5,67.7734 A5,5 0 0 1 669.5,72.7734 L669.5,180.2969 A5,5 0 0 1 664.5,185.2969 L479.5,185.2969 A5,5 0 0 1 474.5,180.2969 L474.5,52.2969 A5,5 0 0 1 479.5,47.2969 " fill="#F8F8F8" style="stroke:#AAAAAA;stroke-width:1.5;"/><line style="stroke:#AAAAAA;stroke-width:1.5;" x1="474.5" x2="573.5" y1="67.7734" y2="67.7734"/><text fill="#000000" font-family="sans-serif" font-size="9" font-weight="bold" lengthAdjust="spacing" textLength="82" x="480.5" y="59.6509">MCP Server Core</text></g><!--cluster msg_tools--><g id="cluster_msg_tools"><path d="M219.5,300.7969 L290.5,300.7969 A7.5,7.5 0 0 1 295.5,305.7969 L302.5,321.2734 L797.5,321.2734 A5,5 0 0 1 802.5,326.2734 L802.5,849.2969 A5,5 0 0 1 797.5,854.2969 L219.5,854.2969 A5,5 0 0 1 214.5,849.2969 L214.5,305.7969 A5,5 0 0 1 219.5,300.7969 " fill="#F8F8F8" style="stroke:#AAAAAA;stroke-width:1.5;"/><line style="stroke:#AAAAAA;stroke-width:1.5;" x1="214.5" x2="302.5" y1="321.2734" y2="321.2734"/><text fill="#000000" font-family="sans-serif" font-size="9" font-weight="bold" lengthAdjust="spacing" textLength="71" x="220.5" y="313.1509">Message Tools</text></g><!--cluster space_search_tools--><g id="cluster_space_search_tools"><path d="M847.5,257.2969 L952.5,257.2969 A7.5,7.5 0 0 1 957.5,262.2969 L964.5,277.7734 L1417.5,277.7734 A5,5 0 0 1 1422.5,282.7734 L1422.5,712.2969 A5,5 0 0 1 1417.5,717.2969 L847.5,717.2969 A5,5 0 0 1 842.5,712.2969 L842.5,262.2969 A5,5 0 0 1 847.5,257.2969 " fill="#F8F8F8" style="stroke:#AAAAAA;stroke-width:1.5;"/><line style="stroke:#AAAAAA;stroke-width:1.5;" x1="842.5" x2="964.5" y1="277.7734" y2="277.7734"/><text fill="#000000" font-family="sans-serif" font-size="9" font-weight="bold" lengthAdjust="spacing" textLength="105" x="848.5" y="269.6509">Space &amp; Search Tools</text></g><!--cluster user_file_tools--><g id="cluster_user_file_tools"><path d="M925.5,919.2969 L1008.5,919.2969 A7.5,7.5 0 0 1 1013.5,924.2969 L1020.5,939.7734 L1455.5,939.7734 A5,5 0 0 1 1460.5,944.7734 L1460.5,1377.2969 A5,5 0 0 1 1455.5,1382.2969 L925.5,1382.2969 A5,5 0 0 1 920.5,1377.2969 L920.5,924.2969 A5,5 0 0 1 925.5,919.2969 " fill="#F8F8F8" style="stroke:#AAAAAA;stroke-width:1.5;"/><line style="stroke:#AAAAAA;stroke-width:1.5;" x1="920.5" x2="1020.5" y1="939.7734" y2="939.7734"/><text fill="#000000" font-family="sans-serif" font-size="9" font-weight="bold" lengthAdjust="spacing" textLength="83" x="926.5" y="931.6509">User &amp; File Tools</text></g><!--class server_class--><g id="elem_server_class"><rect codeLine="25" fill="#F5F5F5" height="72.9531" id="server_class" rx="5" ry="5" style="stroke:#888888;stroke-width:0.5;" width="127" x="518" y="88.2969"/><ellipse cx="531" cy="102.2969" fill="#ADD1B2" rx="9" ry="9" style="stroke:#181818;stroke-width:1.0;"/><path d="M532.25,105.6094 Q531.9375,105.7656 531.5938,105.8438 Q531.2656,105.9219 530.8906,105.9219 Q529.5625,105.9219 528.8594,105.0469 Q528.1719,104.1719 528.1719,102.5156 Q528.1719,100.8594 528.8594,99.9844 Q529.5625,99.1094 530.8906,99.1094 Q531.2656,99.1094 531.6094,99.2031 Q531.9531,99.2813 532.25,99.4375 L532.25,100.875 Q531.9219,100.5625 531.5938,100.4219 Q531.2813,100.2813 530.9531,100.2813 Q530.25,100.2813 529.875,100.8438 Q529.5156,101.4063 529.5156,102.5156 Q529.5156,103.625 529.875,104.2031 Q530.25,104.7656 530.9531,104.7656 Q531.2813,104.7656 531.5938,104.625 Q531.9219,104.4688 532.25,104.1719 L532.25,105.6094 Z " fill="#000000"/><text fill="#000000" font-family="sans-serif" font-size="9" lengthAdjust="spacing" textLength="95" x="545" y="105.4126">MCP FastAPI Server</text><line style="stroke:#888888;stroke-width:0.5;" x1="519" x2="644" y1="116.2969" y2="116.2969"/><line style="stroke:#888888;stroke-width:0.5;" x1="519" x2="644" y1="124.2969" y2="124.2969"/><text fill="#000000" font-family="sans-serif" font-size="9" lengthAdjust="spacing" textLength="78" x="526" y="138.6509">+register_tool()</text><text fill="#000000" font-family="sans-serif" font-size="9" lengthAdjust="spacing" textLength="32" x="526" y="153.1274">+run()</text></g><!--class send_message--><g id="elem_send_message"><rect codeLine="35" fill="#F5F5F5" height="72.9531" id="send_message" rx="5" ry="5" style="stroke:#888888;stroke-width:0.5;" width="138" x="263.5" y="348.7969"/><ellipse cx="292.7" cy="362.7969" fill="#ADD1B2" rx="9" ry="9" style="stroke:#181818;stroke-width:1.0;"/><path d="M293.95,366.1094 Q293.6375,366.2656 293.2938,366.3438 Q292.9656,366.4219 292.5906,366.4219 Q291.2625,366.4219 290.5594,365.5469 Q289.8719,364.6719 289.8719,363.0156 Q289.8719,361.3594 290.5594,360.4844 Q291.2625,359.6094 292.5906,359.6094 Q292.9656,359.6094 293.3094,359.7031 Q293.6531,359.7813 293.95,359.9375 L293.95,361.375 Q293.6219,361.0625 293.2938,360.9219 Q292.9813,360.7813 292.6531,360.7813 Q291.95,360.7813 291.575,361.3438 Q291.2156,361.9063 291.2156,363.0156 Q291.2156,364.125 291.575,364.7031 Q291.95,365.2656 292.6531,365.2656 Q292.9813,365.2656 293.2938,365.125 Q293.6219,364.9688 293.95,364.6719 L293.95,366.1094 Z " fill="#000000"/><text fill="#000000" font-family="sans-serif" font-size="9" lengthAdjust="spacing" textLength="70" x="310.3" y="365.9126">Send Message</text><line style="stroke:#888888;stroke-width:0.5;" x1="264.5" x2="400.5" y1="376.7969" y2="376.7969"/><line style="stroke:#888888;stroke-width:0.5;" x1="264.5" x2="400.5" y1="384.7969" y2="384.7969"/><text fill="#000000" font-family="sans-serif" font-size="9" lengthAdjust="spacing" textLength="122" x="271.5" y="399.1509">space_name: string (req)</text><text fill="#000000" font-family="sans-serif" font-size="9" lengthAdjust="spacing" textLength="80" x="271.5" y="413.6274">text: string (req)</text></g><!--class reply_thread--><g id="elem_reply_thread"><rect codeLine="40" fill="#F5F5F5" height="87.4297" id="reply_thread" rx="5" ry="5" style="stroke:#888888;stroke-width:0.5;" width="138" x="447.5" y="341.7969"/><ellipse cx="480.3" cy="355.7969" fill="#ADD1B2" rx="9" ry="9" style="stroke:#181818;stroke-width:1.0;"/><path d="M481.55,359.1094 Q481.2375,359.2656 480.8938,359.3438 Q480.5656,359.4219 480.1906,359.4219 Q478.8625,359.4219 478.1594,358.5469 Q477.4719,357.6719 477.4719,356.0156 Q477.4719,354.3594 478.1594,353.4844 Q478.8625,352.6094 480.1906,352.6094 Q480.5656,352.6094 480.9094,352.7031 Q481.2531,352.7813 481.55,352.9375 L481.55,354.375 Q481.2219,354.0625 480.8938,353.9219 Q480.5813,353.7813 480.2531,353.7813 Q479.55,353.7813 479.175,354.3438 Q478.8156,354.9063 478.8156,356.0156 Q478.8156,357.125 479.175,357.7031 Q479.55,358.2656 480.2531,358.2656 Q480.5813,358.2656 480.8938,358.125 Q481.2219,357.9688 481.55,357.6719 L481.55,359.1094 Z " fill="#000000"/><text fill="#000000" font-family="sans-serif" font-size="9" lengthAdjust="spacing" textLength="62" x="498.7" y="358.9126">Reply Thread</text><line style="stroke:#888888;stroke-width:0.5;" x1="448.5" x2="584.5" y1="369.7969" y2="369.7969"/><line style="stroke:#888888;stroke-width:0.5;" x1="448.5" x2="584.5" y1="377.7969" y2="377.7969"/><text fill="#000000" font-family="sans-serif" font-size="9" lengthAdjust="spacing" textLength="122" x="455.5" y="392.1509">space_name: string (req)</text><text fill="#000000" font-family="sans-serif" font-size="9" lengthAdjust="spacing" textLength="114" x="455.5" y="406.6274">thread_key: string (req)</text><text fill="#000000" font-family="sans-serif" font-size="9" lengthAdjust="spacing" textLength="80" x="455.5" y="421.104">text: string (req)</text></g><!--class update_message--><g id="elem_update_message"><rect codeLine="46" fill="#F5F5F5" height="72.9531" id="update_message" rx="5" ry="5" style="stroke:#888888;stroke-width:0.5;" width="152" x="626.5" y="348.7969"/><ellipse cx="657.5" cy="362.7969" fill="#ADD1B2" rx="9" ry="9" style="stroke:#181818;stroke-width:1.0;"/><path d="M658.75,366.1094 Q658.4375,366.2656 658.0938,366.3438 Q657.7656,366.4219 657.3906,366.4219 Q656.0625,366.4219 655.3594,365.5469 Q654.6719,364.6719 654.6719,363.0156 Q654.6719,361.3594 655.3594,360.4844 Q656.0625,359.6094 657.3906,359.6094 Q657.7656,359.6094 658.1094,359.7031 Q658.4531,359.7813 658.75,359.9375 L658.75,361.375 Q658.4219,361.0625 658.0938,360.9219 Q657.7813,360.7813 657.4531,360.7813 Q656.75,360.7813 656.375,361.3438 Q656.0156,361.9063 656.0156,363.0156 Q656.0156,364.125 656.375,364.7031 Q656.75,365.2656 657.4531,365.2656 Q657.7813,365.2656 658.0938,365.125 Q658.4219,364.9688 658.75,364.6719 L658.75,366.1094 Z " fill="#000000"/><text fill="#000000" font-family="sans-serif" font-size="9" lengthAdjust="spacing" textLength="80" x="675.5" y="365.9126">Update Message</text><line style="stroke:#888888;stroke-width:0.5;" x1="627.5" x2="777.5" y1="376.7969" y2="376.7969"/><line style="stroke:#888888;stroke-width:0.5;" x1="627.5" x2="777.5" y1="384.7969" y2="384.7969"/><text fill="#000000" font-family="sans-serif" font-size="9" lengthAdjust="spacing" textLength="136" x="634.5" y="399.1509">message_name: string (req)</text><text fill="#000000" font-family="sans-serif" font-size="9" lengthAdjust="spacing" textLength="104" x="634.5" y="413.6274">new_text: string (req)</text></g><!--class delete_message--><g id="elem_delete_message"><rect codeLine="51" fill="#F5F5F5" height="58.4766" id="delete_message" rx="5" ry="5" style="stroke:#888888;stroke-width:0.5;" width="152" x="246.5" y="584.2969"/><ellipse cx="278.85" cy="598.2969" fill="#ADD1B2" rx="9" ry="9" style="stroke:#181818;stroke-width:1.0;"/><path d="M280.1,601.6094 Q279.7875,601.7656 279.4438,601.8438 Q279.1156,601.9219 278.7406,601.9219 Q277.4125,601.9219 276.7094,601.0469 Q276.0219,600.1719 276.0219,598.5156 Q276.0219,596.8594 276.7094,595.9844 Q277.4125,595.1094 278.7406,595.1094 Q279.1156,595.1094 279.4594,595.2031 Q279.8031,595.2813 280.1,595.4375 L280.1,596.875 Q279.7719,596.5625 279.4438,596.4219 Q279.1313,596.2813 278.8031,596.2813 Q278.1,596.2813 277.725,596.8438 Q277.3656,597.4063 277.3656,598.5156 Q277.3656,599.625 277.725,600.2031 Q278.1,600.7656 278.8031,600.7656 Q279.1313,600.7656 279.4438,600.625 Q279.7719,600.4688 280.1,600.1719 L280.1,601.6094 Z " fill="#000000"/><text fill="#000000" font-family="sans-serif" font-size="9" lengthAdjust="spacing" textLength="77" x="297.15" y="601.4126">Delete Message</text><line style="stroke:#888888;stroke-width:0.5;" x1="247.5" x2="397.5" y1="612.2969" y2="612.2969"/><line style="stroke:#888888;stroke-width:0.5;" x1="247.5" x2="397.5" y1="620.2969" y2="620.2969"/><text fill="#000000" font-family="sans-serif" font-size="9" lengthAdjust="spacing" textLength="136" x="254.5" y="634.6509">message_name: string (req)</text></g><!--class get_message--><g id="elem_get_message"><rect codeLine="55" fill="#F5F5F5" height="72.9531" id="get_message" rx="5" ry="5" style="stroke:#888888;stroke-width:0.5;" width="158" x="433.5" y="576.7969"/><ellipse cx="475.75" cy="590.7969" fill="#ADD1B2" rx="9" ry="9" style="stroke:#181818;stroke-width:1.0;"/><path d="M477,594.1094 Q476.6875,594.2656 476.3438,594.3438 Q476.0156,594.4219 475.6406,594.4219 Q474.3125,594.4219 473.6094,593.5469 Q472.9219,592.6719 472.9219,591.0156 Q472.9219,589.3594 473.6094,588.4844 Q474.3125,587.6094 475.6406,587.6094 Q476.0156,587.6094 476.3594,587.7031 Q476.7031,587.7813 477,587.9375 L477,589.375 Q476.6719,589.0625 476.3438,588.9219 Q476.0313,588.7813 475.7031,588.7813 Q475,588.7813 474.625,589.3438 Q474.2656,589.9063 474.2656,591.0156 Q474.2656,592.125 474.625,592.7031 Q475,593.2656 475.7031,593.2656 Q476.0313,593.2656 476.3438,593.125 Q476.6719,592.9688 477,592.6719 L477,594.1094 Z " fill="#000000"/><text fill="#000000" font-family="sans-serif" font-size="9" lengthAdjust="spacing" textLength="62" x="495.25" y="593.9126">Get Message</text><line style="stroke:#888888;stroke-width:0.5;" x1="434.5" x2="590.5" y1="604.7969" y2="604.7969"/><text fill="#000000" font-family="sans-serif" font-size="9" lengthAdjust="spacing" textLength="142" x="441.5" y="619.1509">include_sender_info: boolean</text><line style="stroke:#888888;stroke-width:0.5;" x1="434.5" x2="590.5" y1="627.2734" y2="627.2734"/><text fill="#000000" font-family="sans-serif" font-size="9" lengthAdjust="spacing" textLength="136" x="441.5" y="641.6274">message_name: string (req)</text></g><!--class add_emoji--><g id="elem_add_emoji"><rect codeLine="60" fill="#F5F5F5" height="72.9531" id="add_emoji" rx="5" ry="5" style="stroke:#888888;stroke-width:0.5;" width="152" x="626.5" y="576.7969"/><ellipse cx="672.75" cy="590.7969" fill="#ADD1B2" rx="9" ry="9" style="stroke:#181818;stroke-width:1.0;"/><path d="M674,594.1094 Q673.6875,594.2656 673.3438,594.3438 Q673.0156,594.4219 672.6406,594.4219 Q671.3125,594.4219 670.6094,593.5469 Q669.9219,592.6719 669.9219,591.0156 Q669.9219,589.3594 670.6094,588.4844 Q671.3125,587.6094 672.6406,587.6094 Q673.0156,587.6094 673.3594,587.7031 Q673.7031,587.7813 674,587.9375 L674,589.375 Q673.6719,589.0625 673.3438,588.9219 Q673.0313,588.7813 672.7031,588.7813 Q672,588.7813 671.625,589.3438 Q671.2656,589.9063 671.2656,591.0156 Q671.2656,592.125 671.625,592.7031 Q672,593.2656 672.7031,593.2656 Q673.0313,593.2656 673.3438,593.125 Q673.6719,592.9688 674,592.6719 L674,594.1094 Z " fill="#000000"/><text fill="#000000" font-family="sans-serif" font-size="9" lengthAdjust="spacing" textLength="48" x="692.25" y="593.9126">Add Emoji</text><line style="stroke:#888888;stroke-width:0.5;" x1="627.5" x2="777.5" y1="604.7969" y2="604.7969"/><line style="stroke:#888888;stroke-width:0.5;" x1="627.5" x2="777.5" y1="612.7969" y2="612.7969"/><text fill="#000000" font-family="sans-serif" font-size="9" lengthAdjust="spacing" textLength="136" x="634.5" y="627.1509">message_name: string (req)</text><text fill="#000000" font-family="sans-serif" font-size="9" lengthAdjust="spacing" textLength="88" x="634.5" y="641.6274">emoji: string (req)</text></g><!--class batch_send--><g id="elem_batch_send"><rect codeLine="65" fill="#F5F5F5" height="58.4766" id="batch_send" rx="5" ry="5" style="stroke:#888888;stroke-width:0.5;" width="122" x="459.5" y="772.2969"/><ellipse cx="487.35" cy="786.2969" fill="#ADD1B2" rx="9" ry="9" style="stroke:#181818;stroke-width:1.0;"/><path d="M488.6,789.6094 Q488.2875,789.7656 487.9438,789.8438 Q487.6156,789.9219 487.2406,789.9219 Q485.9125,789.9219 485.2094,789.0469 Q484.5219,788.1719 484.5219,786.5156 Q484.5219,784.8594 485.2094,783.9844 Q485.9125,783.1094 487.2406,783.1094 Q487.6156,783.1094 487.9594,783.2031 Q488.3031,783.2813 488.6,783.4375 L488.6,784.875 Q488.2719,784.5625 487.9438,784.4219 Q487.6313,784.2813 487.3031,784.2813 Q486.6,784.2813 486.225,784.8438 Q485.8656,785.4063 485.8656,786.5156 Q485.8656,787.625 486.225,788.2031 Q486.6,788.7656 487.3031,788.7656 Q487.6313,788.7656 487.9438,788.625 Q488.2719,788.4688 488.6,788.1719 L488.6,789.6094 Z " fill="#000000"/><text fill="#000000" font-family="sans-serif" font-size="9" lengthAdjust="spacing" textLength="57" x="504.65" y="789.4126">Batch Send</text><line style="stroke:#888888;stroke-width:0.5;" x1="460.5" x2="580.5" y1="800.2969" y2="800.2969"/><line style="stroke:#888888;stroke-width:0.5;" x1="460.5" x2="580.5" y1="808.2969" y2="808.2969"/><text fill="#000000" font-family="sans-serif" font-size="9" lengthAdjust="spacing" textLength="106" x="467.5" y="822.6509">messages: array (req)</text></g><!--class get_spaces--><g id="elem_get_spaces"><rect codeLine="72" fill="#F5F5F5" height="58.4766" id="get_spaces" rx="5" ry="5" style="stroke:#888888;stroke-width:0.5;" width="95" x="886" y="356.2969"/><ellipse cx="902.15" cy="370.2969" fill="#ADD1B2" rx="9" ry="9" style="stroke:#181818;stroke-width:1.0;"/><path d="M903.4,373.6094 Q903.0875,373.7656 902.7438,373.8438 Q902.4156,373.9219 902.0406,373.9219 Q900.7125,373.9219 900.0094,373.0469 Q899.3219,372.1719 899.3219,370.5156 Q899.3219,368.8594 900.0094,367.9844 Q900.7125,367.1094 902.0406,367.1094 Q902.4156,367.1094 902.7594,367.2031 Q903.1031,367.2813 903.4,367.4375 L903.4,368.875 Q903.0719,368.5625 902.7438,368.4219 Q902.4313,368.2813 902.1031,368.2813 Q901.4,368.2813 901.025,368.8438 Q900.6656,369.4063 900.6656,370.5156 Q900.6656,371.625 901.025,372.2031 Q901.4,372.7656 902.1031,372.7656 Q902.4313,372.7656 902.7438,372.625 Q903.0719,372.4688 903.4,372.1719 L903.4,373.6094 Z " fill="#000000"/><text fill="#000000" font-family="sans-serif" font-size="9" lengthAdjust="spacing" textLength="56" x="916.85" y="373.4126">Get Spaces</text><line style="stroke:#888888;stroke-width:0.5;" x1="887" x2="980" y1="384.2969" y2="384.2969"/><line style="stroke:#888888;stroke-width:0.5;" x1="887" x2="980" y1="392.2969" y2="392.2969"/><text fill="#000000" font-family="sans-serif" font-size="9" lengthAdjust="spacing" textLength="79" x="894" y="406.6509">(no parameters)</text></g><!--class space_messages--><g id="elem_space_messages"><rect codeLine="76" fill="#F5F5F5" height="174.2891" id="space_messages" rx="5" ry="5" style="stroke:#888888;stroke-width:0.5;" width="158" x="1016.5" y="298.2969"/><ellipse cx="1049.75" cy="312.2969" fill="#ADD1B2" rx="9" ry="9" style="stroke:#181818;stroke-width:1.0;"/><path d="M1051,315.6094 Q1050.6875,315.7656 1050.3438,315.8438 Q1050.0156,315.9219 1049.6406,315.9219 Q1048.3125,315.9219 1047.6094,315.0469 Q1046.9219,314.1719 1046.9219,312.5156 Q1046.9219,310.8594 1047.6094,309.9844 Q1048.3125,309.1094 1049.6406,309.1094 Q1050.0156,309.1094 1050.3594,309.2031 Q1050.7031,309.2813 1051,309.4375 L1051,310.875 Q1050.6719,310.5625 1050.3438,310.4219 Q1050.0313,310.2813 1049.7031,310.2813 Q1049,310.2813 1048.625,310.8438 Q1048.2656,311.4063 1048.2656,312.5156 Q1048.2656,313.625 1048.625,314.2031 Q1049,314.7656 1049.7031,314.7656 Q1050.0313,314.7656 1050.3438,314.625 Q1050.6719,314.4688 1051,314.1719 L1051,315.6094 Z " fill="#000000"/><text fill="#000000" font-family="sans-serif" font-size="9" lengthAdjust="spacing" textLength="81" x="1068.25" y="315.4126">Space Messages</text><line style="stroke:#888888;stroke-width:0.5;" x1="1017.5" x2="1173.5" y1="326.2969" y2="326.2969"/><text fill="#000000" font-family="sans-serif" font-size="9" lengthAdjust="spacing" textLength="79" x="1024.5" y="340.6509">end_date: string</text><text fill="#000000" font-family="sans-serif" font-size="9" lengthAdjust="spacing" textLength="142" x="1024.5" y="355.1274">include_sender_info: boolean</text><text fill="#000000" font-family="sans-serif" font-size="9" lengthAdjust="spacing" textLength="90" x="1024.5" y="369.604">page_size: integer</text><text fill="#000000" font-family="sans-serif" font-size="9" lengthAdjust="spacing" textLength="90" x="1024.5" y="384.0806">page_token: string</text><text fill="#000000" font-family="sans-serif" font-size="9" lengthAdjust="spacing" textLength="75" x="1024.5" y="398.5571">filter_str: string</text><text fill="#000000" font-family="sans-serif" font-size="9" lengthAdjust="spacing" textLength="76" x="1024.5" y="413.0337">order_by: string</text><text fill="#000000" font-family="sans-serif" font-size="9" lengthAdjust="spacing" textLength="111" x="1024.5" y="427.5103">show_deleted: boolean</text><line style="stroke:#888888;stroke-width:0.5;" x1="1017.5" x2="1173.5" y1="435.6328" y2="435.6328"/><text fill="#000000" font-family="sans-serif" font-size="9" lengthAdjust="spacing" textLength="122" x="1024.5" y="449.9868">space_name: string (req)</text><text fill="#000000" font-family="sans-serif" font-size="9" lengthAdjust="spacing" textLength="111" x="1024.5" y="464.4634">start_date: string (req)</text></g><!--class manage_members--><g id="elem_manage_members"><rect codeLine="88" fill="#F5F5F5" height="87.4297" id="manage_members" rx="5" ry="5" style="stroke:#888888;stroke-width:0.5;" width="138" x="1209.5" y="341.7969"/><ellipse cx="1231.95" cy="355.7969" fill="#ADD1B2" rx="9" ry="9" style="stroke:#181818;stroke-width:1.0;"/><path d="M1233.2,359.1094 Q1232.8875,359.2656 1232.5438,359.3438 Q1232.2156,359.4219 1231.8406,359.4219 Q1230.5125,359.4219 1229.8094,358.5469 Q1229.1219,357.6719 1229.1219,356.0156 Q1229.1219,354.3594 1229.8094,353.4844 Q1230.5125,352.6094 1231.8406,352.6094 Q1232.2156,352.6094 1232.5594,352.7031 Q1232.9031,352.7813 1233.2,352.9375 L1233.2,354.375 Q1232.8719,354.0625 1232.5438,353.9219 Q1232.2313,353.7813 1231.9031,353.7813 Q1231.2,353.7813 1230.825,354.3438 Q1230.4656,354.9063 1230.4656,356.0156 Q1230.4656,357.125 1230.825,357.7031 Q1231.2,358.2656 1231.9031,358.2656 Q1232.2313,358.2656 1232.5438,358.125 Q1232.8719,357.9688 1233.2,357.6719 L1233.2,359.1094 Z " fill="#000000"/><text fill="#000000" font-family="sans-serif" font-size="9" lengthAdjust="spacing" textLength="85" x="1248.05" y="358.9126">Manage Members</text><line style="stroke:#888888;stroke-width:0.5;" x1="1210.5" x2="1346.5" y1="369.7969" y2="369.7969"/><line style="stroke:#888888;stroke-width:0.5;" x1="1210.5" x2="1346.5" y1="377.7969" y2="377.7969"/><text fill="#000000" font-family="sans-serif" font-size="9" lengthAdjust="spacing" textLength="122" x="1217.5" y="392.1509">space_name: string (req)</text><text fill="#000000" font-family="sans-serif" font-size="9" lengthAdjust="spacing" textLength="108" x="1217.5" y="406.6274">operation: string (req)</text><text fill="#000000" font-family="sans-serif" font-size="9" lengthAdjust="spacing" textLength="116" x="1217.5" y="421.104">user_emails: array (req)</text></g><!--class search_messages--><g id="elem_search_messages"><rect codeLine="94" fill="#F5F5F5" height="159.8125" id="search_messages" rx="5" ry="5" style="stroke:#888888;stroke-width:0.5;" width="158" x="874.5" y="533.2969"/><ellipse cx="905.95" cy="547.2969" fill="#ADD1B2" rx="9" ry="9" style="stroke:#181818;stroke-width:1.0;"/><path d="M907.2,550.6094 Q906.8875,550.7656 906.5438,550.8438 Q906.2156,550.9219 905.8406,550.9219 Q904.5125,550.9219 903.8094,550.0469 Q903.1219,549.1719 903.1219,547.5156 Q903.1219,545.8594 903.8094,544.9844 Q904.5125,544.1094 905.8406,544.1094 Q906.2156,544.1094 906.5594,544.2031 Q906.9031,544.2813 907.2,544.4375 L907.2,545.875 Q906.8719,545.5625 906.5438,545.4219 Q906.2313,545.2813 905.9031,545.2813 Q905.2,545.2813 904.825,545.8438 Q904.4656,546.4063 904.4656,547.5156 Q904.4656,548.625 904.825,549.2031 Q905.2,549.7656 905.9031,549.7656 Q906.2313,549.7656 906.5438,549.625 Q906.8719,549.4688 907.2,549.1719 L907.2,550.6094 Z " fill="#000000"/><text fill="#000000" font-family="sans-serif" font-size="9" lengthAdjust="spacing" textLength="85" x="924.05" y="550.4126">Search Messages</text><line style="stroke:#888888;stroke-width:0.5;" x1="875.5" x2="1031.5" y1="561.2969" y2="561.2969"/><text fill="#000000" font-family="sans-serif" font-size="9" lengthAdjust="spacing" textLength="99" x="882.5" y="575.6509">search_mode: string</text><text fill="#000000" font-family="sans-serif" font-size="9" lengthAdjust="spacing" textLength="65" x="882.5" y="590.1274">spaces: array</text><text fill="#000000" font-family="sans-serif" font-size="9" lengthAdjust="spacing" textLength="99" x="882.5" y="604.604">max_results: integer</text><text fill="#000000" font-family="sans-serif" font-size="9" lengthAdjust="spacing" textLength="142" x="882.5" y="619.0806">include_sender_info: boolean</text><text fill="#000000" font-family="sans-serif" font-size="9" lengthAdjust="spacing" textLength="84" x="882.5" y="633.5571">start_date: string</text><text fill="#000000" font-family="sans-serif" font-size="9" lengthAdjust="spacing" textLength="79" x="882.5" y="648.0337">end_date: string</text><text fill="#000000" font-family="sans-serif" font-size="9" lengthAdjust="spacing" textLength="75" x="882.5" y="662.5103">filter_str: string</text><line style="stroke:#888888;stroke-width:0.5;" x1="875.5" x2="1031.5" y1="670.6328" y2="670.6328"/><text fill="#000000" font-family="sans-serif" font-size="9" lengthAdjust="spacing" textLength="88" x="882.5" y="684.9868">query: string (req)</text></g><!--class get_mentions--><g id="elem_get_mentions"><rect codeLine="105" fill="#F5F5F5" height="116.3828" id="get_mentions" rx="5" ry="5" style="stroke:#888888;stroke-width:0.5;" width="158" x="1067.5" y="555.2969"/><ellipse cx="1108.75" cy="569.2969" fill="#ADD1B2" rx="9" ry="9" style="stroke:#181818;stroke-width:1.0;"/><path d="M1110,572.6094 Q1109.6875,572.7656 1109.3438,572.8438 Q1109.0156,572.9219 1108.6406,572.9219 Q1107.3125,572.9219 1106.6094,572.0469 Q1105.9219,571.1719 1105.9219,569.5156 Q1105.9219,567.8594 1106.6094,566.9844 Q1107.3125,566.1094 1108.6406,566.1094 Q1109.0156,566.1094 1109.3594,566.2031 Q1109.7031,566.2813 1110,566.4375 L1110,567.875 Q1109.6719,567.5625 1109.3438,567.4219 Q1109.0313,567.2813 1108.7031,567.2813 Q1108,567.2813 1107.625,567.8438 Q1107.2656,568.4063 1107.2656,569.5156 Q1107.2656,570.625 1107.625,571.2031 Q1108,571.7656 1108.7031,571.7656 Q1109.0313,571.7656 1109.3438,571.625 Q1109.6719,571.4688 1110,571.1719 L1110,572.6094 Z " fill="#000000"/><text fill="#000000" font-family="sans-serif" font-size="9" lengthAdjust="spacing" textLength="64" x="1128.25" y="572.4126">Get Mentions</text><line style="stroke:#888888;stroke-width:0.5;" x1="1068.5" x2="1224.5" y1="583.2969" y2="583.2969"/><text fill="#000000" font-family="sans-serif" font-size="9" lengthAdjust="spacing" textLength="63" x="1075.5" y="597.6509">days: integer</text><text fill="#000000" font-family="sans-serif" font-size="9" lengthAdjust="spacing" textLength="77" x="1075.5" y="612.1274">space_id: string</text><text fill="#000000" font-family="sans-serif" font-size="9" lengthAdjust="spacing" textLength="142" x="1075.5" y="626.604">include_sender_info: boolean</text><text fill="#000000" font-family="sans-serif" font-size="9" lengthAdjust="spacing" textLength="90" x="1075.5" y="641.0806">page_size: integer</text><text fill="#000000" font-family="sans-serif" font-size="9" lengthAdjust="spacing" textLength="90" x="1075.5" y="655.5571">page_token: string</text><line style="stroke:#888888;stroke-width:0.5;" x1="1068.5" x2="1224.5" y1="663.6797" y2="663.6797"/></g><!--class summarize--><g id="elem_summarize"><rect codeLine="113" fill="#F5F5F5" height="130.8594" id="summarize" rx="5" ry="5" style="stroke:#888888;stroke-width:0.5;" width="138" x="1260.5" y="547.7969"/><ellipse cx="1296" cy="561.7969" fill="#ADD1B2" rx="9" ry="9" style="stroke:#181818;stroke-width:1.0;"/><path d="M1297.25,565.1094 Q1296.9375,565.2656 1296.5938,565.3438 Q1296.2656,565.4219 1295.8906,565.4219 Q1294.5625,565.4219 1293.8594,564.5469 Q1293.1719,563.6719 1293.1719,562.0156 Q1293.1719,560.3594 1293.8594,559.4844 Q1294.5625,558.6094 1295.8906,558.6094 Q1296.2656,558.6094 1296.6094,558.7031 Q1296.9531,558.7813 1297.25,558.9375 L1297.25,560.375 Q1296.9219,560.0625 1296.5938,559.9219 Q1296.2813,559.7813 1295.9531,559.7813 Q1295.25,559.7813 1294.875,560.3438 Q1294.5156,560.9063 1294.5156,562.0156 Q1294.5156,563.125 1294.875,563.7031 Q1295.25,564.2656 1295.9531,564.2656 Q1296.2813,564.2656 1296.5938,564.125 Q1296.9219,563.9688 1297.25,563.6719 L1297.25,565.1094 Z " fill="#000000"/><text fill="#000000" font-family="sans-serif" font-size="9" lengthAdjust="spacing" textLength="56" x="1315" y="564.9126">Summarize</text><line style="stroke:#888888;stroke-width:0.5;" x1="1261.5" x2="1397.5" y1="575.7969" y2="575.7969"/><text fill="#000000" font-family="sans-serif" font-size="9" lengthAdjust="spacing" textLength="111" x="1268.5" y="590.1509">message_limit: integer</text><text fill="#000000" font-family="sans-serif" font-size="9" lengthAdjust="spacing" textLength="84" x="1268.5" y="604.6274">start_date: string</text><text fill="#000000" font-family="sans-serif" font-size="9" lengthAdjust="spacing" textLength="79" x="1268.5" y="619.104">end_date: string</text><text fill="#000000" font-family="sans-serif" font-size="9" lengthAdjust="spacing" textLength="90" x="1268.5" y="633.5806">page_token: string</text><text fill="#000000" font-family="sans-serif" font-size="9" lengthAdjust="spacing" textLength="75" x="1268.5" y="648.0571">filter_str: string</text><line style="stroke:#888888;stroke-width:0.5;" x1="1261.5" x2="1397.5" y1="656.1797" y2="656.1797"/><text fill="#000000" font-family="sans-serif" font-size="9" lengthAdjust="spacing" textLength="122" x="1268.5" y="670.5337">space_name: string (req)</text></g><!--class my_info--><g id="elem_my_info"><rect codeLine="127" fill="#F5F5F5" height="58.4766" id="my_info" rx="5" ry="5" style="stroke:#888888;stroke-width:0.5;" width="95" x="955" y="960.2969"/><ellipse cx="969.8" cy="974.2969" fill="#ADD1B2" rx="9" ry="9" style="stroke:#181818;stroke-width:1.0;"/><path d="M971.05,977.6094 Q970.7375,977.7656 970.3938,977.8438 Q970.0656,977.9219 969.6906,977.9219 Q968.3625,977.9219 967.6594,977.0469 Q966.9719,976.1719 966.9719,974.5156 Q966.9719,972.8594 967.6594,971.9844 Q968.3625,971.1094 969.6906,971.1094 Q970.0656,971.1094 970.4094,971.2031 Q970.7531,971.2813 971.05,971.4375 L971.05,972.875 Q970.7219,972.5625 970.3938,972.4219 Q970.0813,972.2813 969.7531,972.2813 Q969.05,972.2813 968.675,972.8438 Q968.3156,973.4063 968.3156,974.5156 Q968.3156,975.625 968.675,976.2031 Q969.05,976.7656 969.7531,976.7656 Q970.0813,976.7656 970.3938,976.625 Q970.7219,976.4688 971.05,976.1719 L971.05,977.6094 Z " fill="#000000"/><text fill="#000000" font-family="sans-serif" font-size="9" lengthAdjust="spacing" textLength="59" x="984.2" y="977.4126">My User Info</text><line style="stroke:#888888;stroke-width:0.5;" x1="956" x2="1049" y1="988.2969" y2="988.2969"/><line style="stroke:#888888;stroke-width:0.5;" x1="956" x2="1049" y1="996.2969" y2="996.2969"/><text fill="#000000" font-family="sans-serif" font-size="9" lengthAdjust="spacing" textLength="79" x="963" y="1010.6509">(no parameters)</text></g><!--class user_info--><g id="elem_user_info"><rect codeLine="131" fill="#F5F5F5" height="58.4766" id="user_info" rx="5" ry="5" style="stroke:#888888;stroke-width:0.5;" width="112" x="1085.5" y="960.2969"/><ellipse cx="1103" cy="974.2969" fill="#ADD1B2" rx="9" ry="9" style="stroke:#181818;stroke-width:1.0;"/><path d="M1104.25,977.6094 Q1103.9375,977.7656 1103.5938,977.8438 Q1103.2656,977.9219 1102.8906,977.9219 Q1101.5625,977.9219 1100.8594,977.0469 Q1100.1719,976.1719 1100.1719,974.5156 Q1100.1719,972.8594 1100.8594,971.9844 Q1101.5625,971.1094 1102.8906,971.1094 Q1103.2656,971.1094 1103.6094,971.2031 Q1103.9531,971.2813 1104.25,971.4375 L1104.25,972.875 Q1103.9219,972.5625 1103.5938,972.4219 Q1103.2813,972.2813 1102.9531,972.2813 Q1102.25,972.2813 1101.875,972.8438 Q1101.5156,973.4063 1101.5156,974.5156 Q1101.5156,975.625 1101.875,976.2031 Q1102.25,976.7656 1102.9531,976.7656 Q1103.2813,976.7656 1103.5938,976.625 Q1103.9219,976.4688 1104.25,976.1719 L1104.25,977.6094 Z " fill="#000000"/><text fill="#000000" font-family="sans-serif" font-size="9" lengthAdjust="spacing" textLength="70" x="1118" y="977.4126">User Info by ID</text><line style="stroke:#888888;stroke-width:0.5;" x1="1086.5" x2="1196.5" y1="988.2969" y2="988.2969"/><line style="stroke:#888888;stroke-width:0.5;" x1="1086.5" x2="1196.5" y1="996.2969" y2="996.2969"/><text fill="#000000" font-family="sans-serif" font-size="9" lengthAdjust="spacing" textLength="96" x="1093.5" y="1010.6509">user_id: string (req)</text></g><!--class message_with_sender--><g id="elem_message_with_sender"><rect codeLine="135" fill="#F5F5F5" height="58.4766" id="message_with_sender" rx="5" ry="5" style="stroke:#888888;stroke-width:0.5;" width="152" x="1232.5" y="960.2969"/><ellipse cx="1253.15" cy="974.2969" fill="#ADD1B2" rx="9" ry="9" style="stroke:#181818;stroke-width:1.0;"/><path d="M1254.4,977.6094 Q1254.0875,977.7656 1253.7438,977.8438 Q1253.4156,977.9219 1253.0406,977.9219 Q1251.7125,977.9219 1251.0094,977.0469 Q1250.3219,976.1719 1250.3219,974.5156 Q1250.3219,972.8594 1251.0094,971.9844 Q1251.7125,971.1094 1253.0406,971.1094 Q1253.4156,971.1094 1253.7594,971.2031 Q1254.1031,971.2813 1254.4,971.4375 L1254.4,972.875 Q1254.0719,972.5625 1253.7438,972.4219 Q1253.4313,972.2813 1253.1031,972.2813 Q1252.4,972.2813 1252.025,972.8438 Q1251.6656,973.4063 1251.6656,974.5156 Q1251.6656,975.625 1252.025,976.2031 Q1252.4,976.7656 1253.1031,976.7656 Q1253.4313,976.7656 1253.7438,976.625 Q1254.0719,976.4688 1254.4,976.1719 L1254.4,977.6094 Z " fill="#000000"/><text fill="#000000" font-family="sans-serif" font-size="9" lengthAdjust="spacing" textLength="103" x="1268.85" y="977.4126">Message with Sender</text><line style="stroke:#888888;stroke-width:0.5;" x1="1233.5" x2="1383.5" y1="988.2969" y2="988.2969"/><line style="stroke:#888888;stroke-width:0.5;" x1="1233.5" x2="1383.5" y1="996.2969" y2="996.2969"/><text fill="#000000" font-family="sans-serif" font-size="9" lengthAdjust="spacing" textLength="136" x="1240.5" y="1010.6509">message_name: string (req)</text></g><!--class get_participants--><g id="elem_get_participants"><rect codeLine="139" fill="#F5F5F5" height="101.9063" id="get_participants" rx="5" ry="5" style="stroke:#888888;stroke-width:0.5;" width="138" x="944.5" y="1079.2969"/><ellipse cx="969.65" cy="1093.2969" fill="#ADD1B2" rx="9" ry="9" style="stroke:#181818;stroke-width:1.0;"/><path d="M970.9,1096.6094 Q970.5875,1096.7656 970.2438,1096.8438 Q969.9156,1096.9219 969.5406,1096.9219 Q968.2125,1096.9219 967.5094,1096.0469 Q966.8219,1095.1719 966.8219,1093.5156 Q966.8219,1091.8594 967.5094,1090.9844 Q968.2125,1090.1094 969.5406,1090.1094 Q969.9156,1090.1094 970.2594,1090.2031 Q970.6031,1090.2813 970.9,1090.4375 L970.9,1091.875 Q970.5719,1091.5625 970.2438,1091.4219 Q969.9313,1091.2813 969.6031,1091.2813 Q968.9,1091.2813 968.525,1091.8438 Q968.1656,1092.4063 968.1656,1093.5156 Q968.1656,1094.625 968.525,1095.2031 Q968.9,1095.7656 969.6031,1095.7656 Q969.9313,1095.7656 970.2438,1095.625 Q970.5719,1095.4688 970.9,1095.1719 L970.9,1096.6094 Z " fill="#000000"/><text fill="#000000" font-family="sans-serif" font-size="9" lengthAdjust="spacing" textLength="79" x="986.35" y="1096.4126">Get Participants</text><line style="stroke:#888888;stroke-width:0.5;" x1="945.5" x2="1081.5" y1="1107.2969" y2="1107.2969"/><text fill="#000000" font-family="sans-serif" font-size="9" lengthAdjust="spacing" textLength="84" x="952.5" y="1121.6509">start_date: string</text><text fill="#000000" font-family="sans-serif" font-size="9" lengthAdjust="spacing" textLength="79" x="952.5" y="1136.1274">end_date: string</text><text fill="#000000" font-family="sans-serif" font-size="9" lengthAdjust="spacing" textLength="114" x="952.5" y="1150.604">max_messages: integer</text><line style="stroke:#888888;stroke-width:0.5;" x1="945.5" x2="1081.5" y1="1158.7266" y2="1158.7266"/><text fill="#000000" font-family="sans-serif" font-size="9" lengthAdjust="spacing" textLength="122" x="952.5" y="1173.0806">space_name: string (req)</text></g><!--class upload_attachment--><g id="elem_upload_attachment"><rect codeLine="146" fill="#F5F5F5" height="87.4297" id="upload_attachment" rx="5" ry="5" style="stroke:#888888;stroke-width:0.5;" width="138" x="1117.5" y="1086.7969"/><ellipse cx="1135.9" cy="1100.7969" fill="#ADD1B2" rx="9" ry="9" style="stroke:#181818;stroke-width:1.0;"/><path d="M1137.15,1104.1094 Q1136.8375,1104.2656 1136.4938,1104.3438 Q1136.1656,1104.4219 1135.7906,1104.4219 Q1134.4625,1104.4219 1133.7594,1103.5469 Q1133.0719,1102.6719 1133.0719,1101.0156 Q1133.0719,1099.3594 1133.7594,1098.4844 Q1134.4625,1097.6094 1135.7906,1097.6094 Q1136.1656,1097.6094 1136.5094,1097.7031 Q1136.8531,1097.7813 1137.15,1097.9375 L1137.15,1099.375 Q1136.8219,1099.0625 1136.4938,1098.9219 Q1136.1813,1098.7813 1135.8531,1098.7813 Q1135.15,1098.7813 1134.775,1099.3438 Q1134.4156,1099.9063 1134.4156,1101.0156 Q1134.4156,1102.125 1134.775,1102.7031 Q1135.15,1103.2656 1135.8531,1103.2656 Q1136.1813,1103.2656 1136.4938,1103.125 Q1136.8219,1102.9688 1137.15,1102.6719 L1137.15,1104.1094 Z " fill="#000000"/><text fill="#000000" font-family="sans-serif" font-size="9" lengthAdjust="spacing" textLength="94" x="1151.1" y="1103.9126">Upload Attachment</text><line style="stroke:#888888;stroke-width:0.5;" x1="1118.5" x2="1254.5" y1="1114.7969" y2="1114.7969"/><text fill="#000000" font-family="sans-serif" font-size="9" lengthAdjust="spacing" textLength="101" x="1125.5" y="1129.1509">message_text: string</text><line style="stroke:#888888;stroke-width:0.5;" x1="1118.5" x2="1254.5" y1="1137.2734" y2="1137.2734"/><text fill="#000000" font-family="sans-serif" font-size="9" lengthAdjust="spacing" textLength="122" x="1125.5" y="1151.6274">space_name: string (req)</text><text fill="#000000" font-family="sans-serif" font-size="9" lengthAdjust="spacing" textLength="103" x="1125.5" y="1166.104">file_path: string (req)</text></g><!--class send_file--><g id="elem_send_file"><rect codeLine="152" fill="#F5F5F5" height="72.9531" id="send_file" rx="5" ry="5" style="stroke:#888888;stroke-width:0.5;" width="138" x="1290.5" y="1093.7969"/><ellipse cx="1311.6" cy="1107.7969" fill="#ADD1B2" rx="9" ry="9" style="stroke:#181818;stroke-width:1.0;"/><path d="M1312.85,1111.1094 Q1312.5375,1111.2656 1312.1938,1111.3438 Q1311.8656,1111.4219 1311.4906,1111.4219 Q1310.1625,1111.4219 1309.4594,1110.5469 Q1308.7719,1109.6719 1308.7719,1108.0156 Q1308.7719,1106.3594 1309.4594,1105.4844 Q1310.1625,1104.6094 1311.4906,1104.6094 Q1311.8656,1104.6094 1312.2094,1104.7031 Q1312.5531,1104.7813 1312.85,1104.9375 L1312.85,1106.375 Q1312.5219,1106.0625 1312.1938,1105.9219 Q1311.8813,1105.7813 1311.5531,1105.7813 Q1310.85,1105.7813 1310.475,1106.3438 Q1310.1156,1106.9063 1310.1156,1108.0156 Q1310.1156,1109.125 1310.475,1109.7031 Q1310.85,1110.2656 1311.5531,1110.2656 Q1311.8813,1110.2656 1312.1938,1110.125 Q1312.5219,1109.9688 1312.85,1109.6719 L1312.85,1111.1094 Z " fill="#000000"/><text fill="#000000" font-family="sans-serif" font-size="9" lengthAdjust="spacing" textLength="88" x="1327.4" y="1110.9126">Send File Content</text><line style="stroke:#888888;stroke-width:0.5;" x1="1291.5" x2="1427.5" y1="1121.7969" y2="1121.7969"/><text fill="#000000" font-family="sans-serif" font-size="9" lengthAdjust="spacing" textLength="76" x="1298.5" y="1136.1509">file_path: string</text><line style="stroke:#888888;stroke-width:0.5;" x1="1291.5" x2="1427.5" y1="1144.2734" y2="1144.2734"/><text fill="#000000" font-family="sans-serif" font-size="9" lengthAdjust="spacing" textLength="122" x="1298.5" y="1158.6274">space_name: string (req)</text></g><!--class list_with_sender--><g id="elem_list_with_sender"><rect codeLine="157" fill="#F5F5F5" height="116.3828" id="list_with_sender" rx="5" ry="5" style="stroke:#888888;stroke-width:0.5;" width="160" x="944.5" y="1242.2969"/><ellipse cx="957.5" cy="1256.2969" fill="#ADD1B2" rx="9" ry="9" style="stroke:#181818;stroke-width:1.0;"/><path d="M958.75,1259.6094 Q958.4375,1259.7656 958.0938,1259.8438 Q957.7656,1259.9219 957.3906,1259.9219 Q956.0625,1259.9219 955.3594,1259.0469 Q954.6719,1258.1719 954.6719,1256.5156 Q954.6719,1254.8594 955.3594,1253.9844 Q956.0625,1253.1094 957.3906,1253.1094 Q957.7656,1253.1094 958.1094,1253.2031 Q958.4531,1253.2813 958.75,1253.4375 L958.75,1254.875 Q958.4219,1254.5625 958.0938,1254.4219 Q957.7813,1254.2813 957.4531,1254.2813 Q956.75,1254.2813 956.375,1254.8438 Q956.0156,1255.4063 956.0156,1256.5156 Q956.0156,1257.625 956.375,1258.2031 Q956.75,1258.7656 957.4531,1258.7656 Q957.7813,1258.7656 958.0938,1258.625 Q958.4219,1258.4688 958.75,1258.1719 L958.75,1259.6094 Z " fill="#000000"/><text fill="#000000" font-family="sans-serif" font-size="9" lengthAdjust="spacing" textLength="128" x="971.5" y="1259.4126">List Messages with Sender</text><line style="stroke:#888888;stroke-width:0.5;" x1="945.5" x2="1103.5" y1="1270.2969" y2="1270.2969"/><text fill="#000000" font-family="sans-serif" font-size="9" lengthAdjust="spacing" textLength="84" x="952.5" y="1284.6509">start_date: string</text><text fill="#000000" font-family="sans-serif" font-size="9" lengthAdjust="spacing" textLength="79" x="952.5" y="1299.1274">end_date: string</text><text fill="#000000" font-family="sans-serif" font-size="9" lengthAdjust="spacing" textLength="63" x="952.5" y="1313.604">limit: integer</text><text fill="#000000" font-family="sans-serif" font-size="9" lengthAdjust="spacing" textLength="90" x="952.5" y="1328.0806">page_token: string</text><line style="stroke:#888888;stroke-width:0.5;" x1="945.5" x2="1103.5" y1="1336.2031" y2="1336.2031"/><text fill="#000000" font-family="sans-serif" font-size="9" lengthAdjust="spacing" textLength="122" x="952.5" y="1350.5571">space_name: string (req)</text></g><g id="elem_GMN30"><path d="M6,367.7969 L6,403.2266 A5,5 0 0 0 11,408.2266 L178,408.2266 A5,5 0 0 0 183,403.2266 L183,372.7969 L173,362.7969 L11,362.7969 A5,5 0 0 0 6,367.7969 " fill="#FFFFEE" style="stroke:#999999;stroke-width:0.5;"/><path d="M173,362.7969 L173,370.2969 A2.5,2.5 0 0 0 175.5,372.7969 L183,372.7969 L173,362.7969 " fill="#FFFFEE" style="stroke:#999999;stroke-width:1.0;"/><text fill="#000000" font-family="sans-serif" font-size="9" font-weight="bold" lengthAdjust="spacing" textLength="56" x="14" y="378.1509">MCP Server</text><text fill="#000000" font-family="sans-serif" font-size="9" lengthAdjust="spacing" textLength="149" x="14" y="388.6274">Registers all tools and handles</text><text fill="#000000" font-family="sans-serif" font-size="9" lengthAdjust="spacing" textLength="152" x="14" y="399.104">JSON-RPC requests from clients</text></g><!--link server_class to msg_tools--><g id="link_server_class_msg_tools"><path codeLine="168" d="M558.59,161.6169 C547.19,176.3969 532.08,192.1769 514.5,201.2969 C458.13,230.5469 274.06,187.0769 230.5,233.2969 C207.815,257.3669 205.5225,294.3219 209.0438,325.6481 C209.9241,333.4797 211.1677,340.9595 212.547,347.7981 C212.8918,349.5078 213.2451,351.1774 213.6033,352.8024 C213.7824,353.615 213.9627,354.4163 214.1438,355.206 C214.2344,355.6008 214.3251,355.9927 214.416,356.3816 " fill="none" id="server_class-to-msg_tools" style="stroke:#666666;stroke-width:1.0;"/><polygon fill="#666666" points="214.416,356.3816,216.2628,346.7074,213.2781,351.5128,208.4727,348.5281,214.416,356.3816" style="stroke:#666666;stroke-width:1.0;"/><text fill="#000000" font-family="sans-serif" font-size="9" lengthAdjust="spacing" textLength="43" x="486.5" y="220.6509">registers</text></g><!--link server_class to space_search_tools--><g id="link_server_class_space_search_tools"><path codeLine="169" d="M645.31,143.9769 C692.33,160.3669 754.76,188.8169 794.5,233.2969 C817.975,259.5669 831.9075,296.5569 840.0038,327.3506 C840.5098,329.2752 840.993,331.1756 841.4543,333.0477 C841.685,333.9837 841.9102,334.9127 842.13,335.8341 C842.2399,336.2947 842.3485,336.7535 842.4557,337.2103 " fill="none" id="server_class-to-space_search_tools" style="stroke:#666666;stroke-width:1.0;"/><polygon fill="#666666" points="842.4557,337.2103,844.2928,327.5343,841.3129,332.3427,836.5046,329.3628,842.4557,337.2103" style="stroke:#666666;stroke-width:1.0;"/><text fill="#000000" font-family="sans-serif" font-size="9" lengthAdjust="spacing" textLength="43" x="788.5" y="220.6509">registers</text></g><!--link server_class to user_file_tools--><g id="link_server_class_user_file_tools"><path codeLine="170" d="M645.04,126.4269 C817.71,129.3069 1290.92,145.2469 1414.5,233.2969 C1475.53,276.7769 1489.5,309.3669 1489.5,384.2969 C1489.5,384.2969 1489.5,384.2969 1489.5,802.2969 C1489.5,843.7819 1480.5375,889.4894 1471.435,925.2131 C1469.1594,934.1441 1466.875,942.451 1464.7197,949.912 C1463.6421,953.6425 1462.5967,957.1615 1461.6009,960.4413 C1461.3519,961.2612 1461.106,962.0662 1460.8635,962.8558 C1460.7423,963.2506 1460.6219,963.6416 1460.5023,964.0286 " fill="none" id="server_class-to-user_file_tools" style="stroke:#666666;stroke-width:1.0;"/><polygon fill="#666666" points="1460.5023,964.0286,1466.98,956.6098,1461.9778,959.2513,1459.3362,954.2491,1460.5023,964.0286" style="stroke:#666666;stroke-width:1.0;"/><text fill="#000000" font-family="sans-serif" font-size="9" lengthAdjust="spacing" textLength="43" x="1492.5" y="616.6509">registers</text></g><!--link server to GMN30--><g id="link_server_GMN30"><path d="M474.1636,127.4521 C474.0187,127.4819 473.872,127.5122 473.7236,127.5428 C473.4267,127.6041 473.1229,127.667 472.8122,127.7316 C472.1909,127.8607 471.5419,127.9963 470.8661,128.1383 C469.5145,128.4225 468.0555,128.7326 466.4946,129.0688 C463.3728,129.7412 459.8434,130.5177 455.9508,131.3991 C440.3803,134.9244 418.9981,140.1256 394.6413,147.0369 C345.9275,160.8594 285.315,181.5219 235.5,209.2969 C170.75,245.3969 124.45,324.3069 104.87,362.5969 " fill="none" id="server-GMN30" style="stroke:#666666;stroke-width:1.0;stroke-dasharray:7.0,7.0;"/></g><!--SRC=[jLTjRziu3FxkNq5qmFNbK60lGB7bmu0klGuzhBkWsMuV3SLYR5rbAPFaox93__jHafquZjCwsvsB1XP9aJJvaAAEasDuhtKk4SO5St0xdi0vVD9QmjIPAdELGRWIB3UiX9C_qJYHCGaVs4fNxZGvJX9xBzI2UVO_2S0xbjtdHbUAZxNK1fQ5S4ZqIsFqCfAUNLnS46L2aYp7xePdyzV-hoMW3KTJCrbuY3cMpDhktY_UsBJKzxYMQ6z-7HvYVTIknouzY0stlUzDU8XpXNDMINUjbPkAxmXlWfUS2vN3ItgV5ephfL_DcRHUrrqqO1GQUF6yyUhIEIDcbSERJAkWwNdoa2HEE4h3qLFfE4eePwGJ0pVJvK8hL2vPn7Z1aITFqVnDDhtO4J0BDgvzYZBlGfIwPjPTJcvgwPPW6eMyEC2lO30NrX7PaISdfmsrKk7zmJj_7BtCZU3ayIloIrQbiY03KXAdStH5xO5tttFX1IqsRgEr_iNhiS6NqkR1OkD8xVaK5OTQklPPyRIijqTH04kACLMin15OYZTbvSJWrzEQxV2Rws4yXD-sjJjSo1LyAWmo7gmPJqXT80os5gJJUrpzd3EV5vmvtFhuAf1sFhzUxtT9uJ8TRFSA9NRiya0wrEwkwlVejlGIJWx_6A4oMN5CFH88faBDzGXc11raQe_TIyxXjrB_9O9Lgk8K_MgupI0-w1FVCPSLu64RRCtyChZQDMP7m8nXguus_zykcvVjifbwvC4lf9uPihAfdWX96yXzPUG37pRRTTp35hlswaHf2AsT4ctilg-B3jGfR9jkFcfeaLZ7Z4izcllZJKNUPWvDlOyLvT5IdnsHjCCSJPlXwBnG7QLp8Nsx8rg74Sw5TBRga6sXbsci2FuKy6wPyecxnN96KOsDBf0eO84qD5vwWOOveLKljw9EJf1cGkv1LIUB4JxRQOpOsSdZrmfDVoDhTcZUJLE4Lkr9WthsBJLewKYrtSmCoEekN1u7ofwSxkj8oaVMjbfI9Ao3mDbgn-kOCC7_VuZs9B0gIsP8GqnTineAfgRTIL4Aj_DT1uRwqBfwQAQ8_Z7XLRlVVIPSKxkx5h8zAWIqatRiwtItAmYxRYZmiTvM8Ga7Dhgr3fYjuEPgOtTBLwJmGGT3C_8iXOldGps4DSdmz1erFtV0JfWVtCM2ARU1zA95_F4U_JWIV8bl3hSsglg66wbffABfc6M5hxTwll7KbAsfGrqDQ5WmLpoAz_O8jBSrqaaTy3QcoR_nAmoTtiOF-xF7t0SQjTTzU0SQahYzkFYF4zVR1nvfHlKbW2AaC0kTCjcwIfpJpKYTlstDzAFrjMAFQCy0y-IURXzeRqWKtUoexpgdIz3p-gf3lf-TRQvCPsV-sjRi0IObH4sCG53GZqHB4hzF__XuVZSPatew3IqLqDoGramAmeTDF6AyjUHV]--></g></svg>